<svg xmlns="http://www.w3.org/2000/svg" viewBox="0 0 120.16 153.72"><defs><style>.cls-1{fill:#fd0202;}.cls-2{fill:#0dab03;}.cls-3{fill:#333;}.cls-4{fill:#371e0f;}.cls-5{fill:#089208;}.cls-6{fill:#351205;}</style></defs><g id="Layer_2" data-name="Layer 2"><g id="Layer_1-2" data-name="Layer 1"><path class="cls-1" d="M42.82,117.05a60.67,60.67,0,0,1-22.7-13.15c-8.33-7.83-13-17.55-14.78-28.75,1-3.24,1.85-6.49,2.87-9.7.58-1.85,1.21-3.58-1.72-3.77C10.12,46.14,20,35.79,33.77,28.57l16.11,2.25a25.63,25.63,0,0,0-4.36,17c9.27-2.43,14.71-8.25,16.74-17.68,6.47,5.2,12.21,10.72,21.75,9.66-1.79-3-3-5.56-4.74-7.62s-4.1-3.47-6.53-5.44L78.79,25c4.73,2.34,9.72,4.27,14.13,7.1,11,7.07,18.74,16.68,21.34,29.85-3.29-.69-3.2,1-2.53,3.4,1.25,4.54,2.34,9.12,3.5,13.69-1.14,3-2.1,6.17-3.45,9.11-7.23,15.65-19.66,24.92-36.13,29.15L72.89,114c-.49,1.33-1,2.66-1.47,4a1.91,1.91,0,0,0,0,.48L47.16,118l-1.78-4ZM39.21,64.6c-.54,4,.46,6.94,4.45,7.92a5.16,5.16,0,0,0,6.4-3.44C51.62,65,49.21,62.5,46,60.81c.67-2,1.27-3.74,1.87-5.52l-1.19-.52c-1.68,1.9-3,4.33-5.13,5.56s-5,1.4-7.58,2l-.08,1.09Zm28-4.27c-3.52,1.85-4.9,4.69-3.48,8.28a5.17,5.17,0,0,0,6.07,3.3c4.45-.8,4.94-4.3,4.83-7.83l4-2.39L78.54,60c-6.82,2.78-9.55-2.74-13.08-6.6-.37.41-.73.83-1.09,1.25C65.2,56.36,66,58,67.17,60.33ZM47.6,88.3c2.71-3.83,5-7.78,10.42-7.91,5.58-.14,7.21,4.75,10.61,7.6.3-4.27-1.8-7-5.07-8.78a11.06,11.06,0,0,0-12.26.64C48.66,81.71,46.42,84,47.6,88.3Z"/><path class="cls-2" d="M78.79,25l-6.05,1.71c2.43,2,4.8,3.43,6.53,5.44s3,4.66,4.74,7.62c-9.54,1.06-15.28-4.46-21.75-9.66-2,9.43-7.47,15.25-16.74,17.68a25.63,25.63,0,0,1,4.36-17L33.77,28.57l-6.26-4.45a24.78,24.78,0,0,1,19-4.75L41.33,8.5c8.34-1.78,14.52.7,20,5.44-.88,4.2-3.39,8.27-.66,14.09a46.78,46.78,0,0,0,3.62-4.93c1.06-2,1.81-4.15,2.69-6.24,7.61-2.58,13.13-1.17,17.68,4.76Z"/><path class="cls-3" d="M89.25,146.78c.42,2.32-.3,3.87-2.8,4.35-4.19.81-8.34,2.31-12.54,2.42-10.55.29-21.12.18-31.67-.21-3.88-.15-7.72-1.51-11.56-2.38-3.29-.76-4-2.59-2-5.36,1.8.87,3.53,2.17,5.42,2.51,2.07.36,4.29-.3,6.45-.3,3.26,0,5-1.3,4.61-4.75L73.28,143c.51,1.43.86,4,1.56,4.1C79.62,147.75,84.53,149.66,89.25,146.78Z"/><path class="cls-4" d="M89.25,146.78c-4.72,2.88-9.63,1-14.41.31-.7-.1-1-2.67-1.56-4.1a65.08,65.08,0,0,0-1.88-24.53,1.91,1.91,0,0,1,0-.48c.48-1.34,1-2.67,1.47-4l2.76,3.36c.87,8.24,1.75,16.48,2.63,24.88,3.13.57,6.68-4.15,10.16-.52C89.42,142.72,89,145.05,89.25,146.78Z"/><path class="cls-4" d="M45.14,143.06c.39,3.45-1.35,4.76-4.61,4.75-2.16,0-4.38.66-6.45.3-1.89-.34-3.62-1.64-5.42-2.51.87-5.18,2.06-6,6.82-4.61l4.43,1.29,2.91-25.23L45.38,114l1.78,4C45.13,126.23,43.64,134.52,45.14,143.06Z"/><path class="cls-4" d="M115.23,79.08c-1.16-4.57-2.25-9.15-3.5-13.69-.67-2.4-.76-4.09,2.53-3.4,1.86,6.52,4.07,13,5.42,19.57a29.21,29.21,0,0,1-.16,11.33c-1.13,5.57-3.12,11-5.07,17.54-1.47-3.12-6-2.58-4.55-6.92.06-.19-2.39-1.2-3.68-1.84v-1.24c1.59-.44,3.17-1.27,4.75-1.26,2.68,0,3.88-1.24,4.45-3.6C116.75,90.05,117.58,84.55,115.23,79.08Z"/><path class="cls-4" d="M6.49,61.68c2.93.19,2.3,1.92,1.72,3.77-1,3.21-1.92,6.46-2.87,9.7a33.06,33.06,0,0,0-1,19.51C5,97.6,6.19,99.34,9.6,99.25c1.26,0,2.57,1.33,3.85,2.06l-3.29,2.29.63.32c-1.4,2-2.8,3.94-4.13,5.79-.9-.42-1.14-.45-1.19-.56C-1.53,93.17-2.46,77.32,6.49,61.68Z"/><path class="cls-5" d="M67,16.86c-.88,2.09-1.63,4.25-2.69,6.24A46.78,46.78,0,0,1,60.71,28c-2.73-5.82-.22-9.89.66-14.09,2.86-4,5.66-8.07,8.63-12A4.88,4.88,0,0,1,72.91.12c1.47-.19,3.7-.26,4.39.6C78.73,2.49,77.48,4,75.53,5c-4.12,2-6.64,5.44-8.35,9.54A7.55,7.55,0,0,0,67,16.86Z"/><path class="cls-6" d="M39.21,64.6l-5.32-1.15L34,62.36c2.56-.63,5.41-.75,7.58-2s3.45-3.66,5.13-5.56l1.19.52c-.6,1.78-1.2,3.56-1.87,5.52,3.21,1.69,5.62,4.21,4.06,8.27a5.16,5.16,0,0,1-6.4,3.44C39.67,71.54,38.67,68.56,39.21,64.6Z"/><path class="cls-6" d="M67.17,60.33c-1.14-2.29-2-4-2.8-5.65.36-.42.72-.84,1.09-1.25C69,57.29,71.72,62.81,78.54,60l.08,1.66-4,2.39c.11,3.53-.38,7-4.83,7.83a5.17,5.17,0,0,1-6.07-3.3C62.27,65,63.65,62.18,67.17,60.33Z"/><path class="cls-6" d="M47.6,88.3c-1.18-4.27,1.06-6.59,3.7-8.45a11.06,11.06,0,0,1,12.26-.64C66.83,81,68.93,83.72,68.63,88c-3.4-2.85-5-7.74-10.61-7.6C52.61,80.52,50.31,84.47,47.6,88.3Z"/></g></g></svg>