<svg xmlns="http://www.w3.org/2000/svg" viewBox="0 0 133.54 153.94"><defs><style>.cls-1{fill:#fd0202;}.cls-2{fill:#0dab03;}.cls-3{opacity:0.15;}.cls-4{fill:#371e0f;}.cls-5{fill:#089208;}.cls-6{fill:#351205;}</style></defs><g id="Layer_2" data-name="Layer 2"><g id="Layer_1-2" data-name="Layer 1"><path class="cls-1" d="M15.49,68.72c2.2-18.37,12.6-30.87,28.3-39.6l16.26,2.54C57,36.6,55,42.05,55.88,48.5,65.25,46,70.51,40,72.61,30.67c6.12,5.58,12.1,10.49,21,10.1-1.51-6.53-5.75-10.19-11-13.47L89,25.8c5.17,2.61,10.67,4.73,15.46,7.92a46.61,46.61,0,0,1,20.93,32L117.22,79.2c1.91-.54,3.17-.56,4-1.19a47.84,47.84,0,0,0,4.26-4.17c-.62,14.51-7.6,25.6-18.72,34.33a54.09,54.09,0,0,1-23,10.45L80.6,114c-.91,2.6-1.41,4-1.92,5.5a57.82,57.82,0,0,1-23.45-1.47l-1.83-3L50.92,117c-13.58-5-24.69-13.17-30.8-26.61C17.7,85,16.93,78.94,15.41,73.2Zm40.93,9.93c-.05,5.83,2.41,9.47,6.43,9.51,4.19,0,7-3.92,6.8-9.74-.14-5.11-3-9.15-6.51-9.28S56.47,73.27,56.42,78.65Zm.22-17.2c.06-3.39-2-5.53-5.51-5.6a5.43,5.43,0,0,0-5.9,5.3,5.56,5.56,0,0,0,5.31,5.92A5.48,5.48,0,0,0,56.64,61.45Zm12.78-.84A5.62,5.62,0,1,0,75,55,5.39,5.39,0,0,0,69.42,60.61Z"/><path class="cls-2" d="M89,25.8l-6.3,1.5c5.21,3.28,9.45,6.94,11,13.47-8.93.39-14.91-4.52-21-10.1C70.51,40,65.25,46,55.88,48.5,55,42.05,57,36.6,60.05,31.66L43.79,29.12l-6-4.21c6-4.84,12.52-5.45,19.4-4.87L51.4,9.59c8.41-2.47,14.54.25,20.1,5.11-.91,3.9-2.9,7.7-1.27,12.21,2.36-.25,4.09-.59,4.45-3.53.27-2.23,1.3-4.36,2-6.54,1.46-.13,2.93-.22,4.38-.39A15,15,0,0,1,95.18,22Z"/><path class="cls-3" d="M93.6,150c-.42.65-.76,1.78-1.26,1.86-5.2.84-10.42,2.07-15.64,2.11-10.08.07-20.17-.39-30.23-1a34.32,34.32,0,0,1-9.54-2.46c-.88-.32-4.4-1.89-.35-3.44,1.37.84,2.73,2.37,4.1,2.38,3.92,0,7.84-.61,11.87-1,.13-2.15.22-3.79.32-5.42H81.38c.08,1.6.17,3.2.27,5.22Z"/><path class="cls-4" d="M93.6,150l-11.95-1.72c-.1-2-.19-3.62-.27-5.22.09-2.78.56-5.62.19-8.34-.7-5.09-1.9-10.11-2.89-15.15.51-1.45,1-2.9,1.92-5.5l3.17,4.59c.81,8.19,1.63,16.38,2.48,25,1.26-.4,2.8-.87,4.33-1.37,2.7-.9,5.47-1.32,6.74,1.92S96.32,149,93.6,150Z"/><path class="cls-4" d="M52.87,143c-.1,1.63-.19,3.27-.32,5.42-4,.38-7.95,1-11.87,1-1.37,0-2.73-1.54-4.1-2.38.65-5.13,2.07-6.2,6.67-4.94,1.58.43,3.13.95,4.62,1.41,1-9,2-17.77,3.05-26.54l2.48-1.89,1.83,3C53.2,126.26,51.9,134.53,52.87,143Z"/><path class="cls-4" d="M125.45,73.84A47.84,47.84,0,0,1,121.19,78c-.8.63-2.06.65-4,1.19l8.15-13.44c3.13-5.81,3.59-12,2.41-18.35a8.08,8.08,0,0,0-2.29-3.51c-1.18-1.26-2.61-2.29-4.37-3.8,4.21-2.08,7.44-4.64,11.93-3.74.16.4.61,1,.45,1.27-3.09,5.25-1.75,11-1.81,16.54C131.62,61.38,128.88,67.71,125.45,73.84Z"/><path class="cls-4" d="M15.49,68.72c0,1.5-.06,3-.08,4.48-7.09-5.46-10.47-13-12-21.54C2.43,46.25,1.17,40.89,0,35.3c3.17-1.47,6.57.56,10,1,.35.05,1,2.3.62,2.65-8.68,8.58-2.8,16.7.8,24.78C12.3,65.64,14.12,67.08,15.49,68.72Z"/><path class="cls-5" d="M76.67,16.84C76,19,75,21.15,74.68,23.38c-.36,2.94-2.09,3.28-4.45,3.53-1.63-4.51.36-8.31,1.27-12.21C73.86,9.05,77.07,4.1,82.65,1.08c1.83-1,3.77-2,5.07.54,1.1,2.19-.39,3.33-2.18,4.22C80.9,8.14,78.52,12.27,76.67,16.84Z"/><path class="cls-6" d="M56.42,78.65c0-5.38,3.06-9.65,6.72-9.51s6.37,4.17,6.51,9.28c.16,5.82-2.61,9.79-6.8,9.74C58.83,88.12,56.37,84.48,56.42,78.65Z"/><path class="cls-6" d="M56.64,61.45a5.48,5.48,0,0,1-6.1,5.62,5.56,5.56,0,0,1-5.31-5.92,5.43,5.43,0,0,1,5.9-5.3C54.59,55.92,56.7,58.06,56.64,61.45Z"/><path class="cls-6" d="M69.42,60.61A5.39,5.39,0,0,1,75,55a5.79,5.79,0,1,1-5.6,5.64Z"/></g></g></svg>