<svg xmlns="http://www.w3.org/2000/svg" viewBox="0 0 117.75 156.33"><defs><style>.cls-1{fill:#fd0202;}.cls-2{fill:#0dab03;}.cls-3{opacity:0.15;}.cls-4{fill:#371e0f;}.cls-5{fill:#089208;}.cls-6{fill:#351205;}</style></defs><g id="Layer_2" data-name="Layer 2"><g id="Layer_1-2" data-name="Layer 1"><path class="cls-1" d="M41.55,117.5c-16.93-5-29.09-15.27-35.43-32-.35-.92-.72-1.83-1.07-2.75-.45-2.66-.89-5.33-1.33-8C3.44,53.54,14.18,39.18,32,29.26l16,2.6c-2.91,4.9-4.75,10.38-4.08,16.75,9.5-2.56,14.8-8.5,16.8-17.79C67.18,36.22,73,41.44,82,40.78c-1.74-6.46-5.76-10.23-11.42-13.42L77.44,26c11.24,4.31,21.24,10.36,28.25,20.49,5.76,8.32,8.87,17.43,8,27.69a5.68,5.68,0,0,0-.81-1.21c-1-.88-2-1.7-3-2.54-.09,1.3-.5,2.68-.2,3.89.73,3,1.78,5.94,2.7,8.91-6.08,19-19.5,29.94-38.31,35l-2.77-2.11c-.51,1-1,2.1-1.54,3.14l-23.89-.26C45.25,116,44.08,114.67,41.55,117.5ZM56.74,61.32c-1,5.36-.1,7.73,3.21,9.1,2.75,1.13,4.94.17,6.59-1.93.75-1,1.46-2.59,1.17-3.63-.58-2-1.88-3.88-2.91-5.86,4.87-3.84,5.44-5,3.6-9.65-2.57,10.31-11.78,7.92-18.83,10.32,1,.9,1.18,1.27,1.43,1.29C52.8,61.11,54.61,61.19,56.74,61.32ZM35.6,59.69c-4,4.55-4.48,6.67-2.32,9.37,1.85,2.31,4.35,3.38,7,1.8a7.42,7.42,0,0,0,3.25-4.12c.4-1.65-.46-3.61-.76-5.38l6-.58V59.42c-3.61-.69-7.5-.77-10.77-2.25s-5.69-4.28-8.68-6.66C28.44,55.52,32.19,57.34,35.6,59.69ZM34.28,87.87c4.1-6.37,9.6-9.84,17-9.73C58.57,78.25,64,81.77,68,88c.55-4.47-2-7.08-5.13-9-7.54-4.73-15.34-4.84-23-.31C36.42,80.65,33.62,83.21,34.28,87.87Z"/><path class="cls-2" d="M77.44,26l-6.9,1.41c5.66,3.19,9.68,7,11.42,13.42-9,.66-14.78-4.56-21.16-10-2,9.29-7.3,15.23-16.8,17.79-.67-6.37,1.17-11.85,4.08-16.75l-16-2.6-6.13-4.44c6.18-4.5,12.58-5.41,19.35-4.71L39.51,9.05c8.08-.73,14.6-.38,19.42,5.74L57.74,26.37c3.29,1.06,4.61.36,5.24-2.49.51-2.27,1.84-4.36,2.81-6.53,6.53-2.05,12.32-1.08,17.62,4.59Z"/><path class="cls-3" d="M87.57,149c2,1.21.9,2.31-.36,2.86-2.71,1.18-5.49,2.67-8.35,3-14.48,1.53-29,2.54-43.45-.42-2.09-.43-4.23-.67-6.27-1.26-3-.88-4.06-2.68-2-5.5,1.8.85,3.54,2.16,5.42,2.43,2.23.33,4.58-.35,6.88-.37,3.15,0,4.47-1.52,4.18-4.58,5.44-.34,10.87-.9,16.31-1,3.94,0,7.89.57,11.83.9.55,1.4.93,3.9,1.68,4C78.14,149.82,82.91,151.53,87.57,149Z"/><path class="cls-4" d="M43.66,145.15c.29,3.06-1,4.56-4.18,4.58-2.3,0-4.65.7-6.88.37-1.88-.27-3.62-1.58-5.42-2.43.76-5.16,2.05-6,6.75-4.67,1.56.46,3.14.86,4.48,1.22,1.06-9.06,2.1-17.89,3.14-26.72,2.53-2.83,3.7-1.55,4.3,1.43C43.77,127.56,42.08,136.22,43.66,145.15Z"/><path class="cls-4" d="M112.36,83.18c-.92-3-2-5.9-2.7-8.91-.3-1.21.11-2.59.2-3.89,1,.84,2,1.66,3,2.54a5.68,5.68,0,0,1,.81,1.21c1.42,7.13,3.41,14.2,4,21.4.36,4.08-1.4,8.38-2.4,12.54-.82,3.42-1.92,6.78-3.2,11.25l-8.26-10.15c1.45-.44,2.83-1.21,4.2-1.2,3.3,0,4.72-1.73,5.37-4.66A37.15,37.15,0,0,0,112.36,83.18Z"/><path class="cls-4" d="M87.57,149c-4.66,2.51-9.43.8-14.09.09-.75-.11-1.13-2.61-1.68-4,1.07-8.78,0-17.38-2.06-25.91.51-1,1-2.09,1.54-3.14l2.77,2.11c.91,8.57,1.82,17.13,2.77,26.1,1-.29,2.55-.66,4-1.12C86.83,141.31,88.56,142.82,87.57,149Z"/><path class="cls-4" d="M3.72,74.77c.44,2.66.88,5.33,1.33,8-2.17,7.41-2.22,14.71.86,21.8l8,1.62.16,1.21c-4.05,1.39-4,6.42-8.21,8.24C.31,102.21-2.94,88.81,3.72,74.77Z"/><path class="cls-5" d="M65.79,17.35c-1,2.17-2.3,4.26-2.81,6.53-.63,2.85-1.95,3.55-5.24,2.49l1.19-11.58A41.23,41.23,0,0,1,62.7,9.16a98.58,98.58,0,0,1,8.5-8.1c1.42-1.2,3.46-1.76,4.71.39s-.2,3.47-2,4.33c-4.13,2-6.54,5.46-8.29,9.49C65.43,15.84,65.74,16.65,65.79,17.35Z"/><path class="cls-6" d="M56.74,61.32c-2.13-.13-3.94-.21-5.74-.36-.25,0-.46-.39-1.43-1.29,7-2.4,16.26,0,18.83-10.32C70.24,54,69.67,55.16,64.8,59c1,2,2.33,3.82,2.91,5.86.29,1-.42,2.66-1.17,3.63-1.65,2.1-3.84,3.06-6.59,1.93C56.64,69.05,55.71,66.68,56.74,61.32Z"/><path class="cls-6" d="M35.6,59.69c-3.41-2.35-7.16-4.17-6.29-9.18,3,2.38,5.51,5.23,8.68,6.66s7.16,1.56,10.77,2.25v1.36l-6,.58c.3,1.77,1.16,3.73.76,5.38a7.42,7.42,0,0,1-3.25,4.12c-2.66,1.58-5.16.51-7-1.8C31.12,66.36,31.65,64.24,35.6,59.69Z"/><path class="cls-6" d="M34.28,87.87c-.66-4.66,2.14-7.22,5.52-9.2,7.7-4.53,15.5-4.42,23,.31,3.09,1.94,5.68,4.55,5.13,9-4-6.23-9.4-9.75-16.66-9.86C43.88,78,38.38,81.5,34.28,87.87Z"/></g></g></svg>