<svg xmlns="http://www.w3.org/2000/svg" viewBox="0 0 122.31 153.94"><defs><style>.cls-1{fill:#fd0202;}.cls-2{fill:#0dab03;}.cls-3{opacity:0.15;}.cls-4{fill:#351205;}.cls-5{fill:#371e0f;}.cls-6{fill:#089208;}</style></defs><g id="Layer_2" data-name="Layer 2"><g id="Layer_1-2" data-name="Layer 1"><path class="cls-1" d="M.88,70.76c-.19-2-.82-4.09-.5-6C2.71,50.43,10.49,39.69,22.53,31.88c1.81-1.18,3.66-2.28,5.5-3.42l15.53,1.76.62.63c-3,5.1-4.87,10.44-4,17C49.22,45.14,54.83,39.65,56.69,30,63.12,35.27,69,40.78,78.63,39.7c-1.9-3.05-3.09-5.62-4.87-7.67s-4.08-3.5-6.48-5.49l5.61-1.38c11.46,3.77,21.18,10,28.4,19.85,7,9.53,9.54,20.22,8.41,31.88l-1.16,5.7c-6.49,18.85-20.08,29.84-38.86,35.05a7.46,7.46,0,0,0-.73-1.81,24.2,24.2,0,0,0-2.11-2.19,20,20,0,0,0-1.65,3c-.21.55.11,1.29.2,2a68.19,68.19,0,0,1-24.46-.82l-.41-.23.28-1.88-.35-1.17c-3.88-2.14-3.33,1-3.68,3.08a3,3,0,0,1-.78-.08c-2-3.47-.74-7-.12-11-1.26.12-2.56-.14-3.31.39-4.88,3.45-9.42,1.28-14.08-.49C11.39,103.63,7.92,98.25,7,91c-.78-5.9-1.48-11.81-2-17.73C4.7,70.34,3.67,69.33.88,70.76Zm66.46-1.14c8.74.1,8.74.1,9.89-5.47,2-10,.25-12-9.62-9.74-9.25,2.11-18.33,2.42-27.51-.17a14,14,0,0,0-5.89-.6c-1.24.2-3.1,1.7-3.21,2.77a40.27,40.27,0,0,0,.29,9.43c.34,2.61,2,4,4.91,3.84s6-.1,9-.06c3.61.06,6-1.22,6.77-5.1.21-1.09,1.35-2,2.06-3,.82,1.08,2.12,2.07,2.36,3.26.76,3.7,3.13,4.81,6.46,4.84Zm5.5,3.24C68.5,85.91,60.56,87.17,50,81.32c2.81,6,8.6,7.59,15.27,5.14C71.26,84.24,74.49,79.36,72.84,72.86Z"/><path class="cls-2" d="M43.56,30.22,28,28.46l-6-4.35c6.07-4.76,12.56-5.62,19.52-4.62L35.89,9.12c6.85-2.74,13.58-.88,19,4.71-.36,4-.72,8-1.1,12.16,3.51,1,4.8.09,5.23-3,.3-2.16,1.52-4.18,2.34-6.26,7.51-2.53,13.07-1.13,17.94,4.75l-6.42,3.68-5.61,1.38c2.4,2,4.74,3.48,6.48,5.49s3,4.62,4.87,7.67C69,40.78,63.12,35.27,56.69,30c-1.86,9.69-7.47,15.18-16.55,17.86-.83-6.53,1.09-11.87,4-17l.48-.83Z"/><path class="cls-3" d="M83.52,145.07l2.88,3.58c-2.4,1.06-4.36,2.39-6.49,2.8a130.36,130.36,0,0,1-50.79,0c-2.47-.51-6.58-.25-6.09-4.94,3.63,2.71,7.64.78,11.48.93,3.27.12,4.87-1.4,4.45-4.77H67c-.33,3.3,1.19,4.79,4.48,4.78a58.55,58.55,0,0,1,6.87.45A4.67,4.67,0,0,0,83.52,145.07Z"/><path class="cls-4" d="M.88,70.76C3.67,69.33,4.7,70.34,5,73.3,5.49,79.22,6.19,85.13,7,91c1,7.22,4.42,12.6,11.51,15.3,4.66,1.77,9.2,3.94,14.08.49.75-.53,2-.27,3.31-.39-.62,4-1.9,7.55.12,11l-.06,1.21a3.93,3.93,0,0,1-5.17-1.45c-2.53-3.54-6.14-5.34-10.24-6.54a43,43,0,0,1-6.83-3c-5.08-2.51-8.3-6.4-9.3-12.14C3,87.83,1.42,80.16,0,72.45-.08,72,.57,71.33.88,70.76Z"/><path class="cls-5" d="M83.52,145.07a4.67,4.67,0,0,1-5.16,2.82,58.55,58.55,0,0,0-6.87-.45c-3.29,0-4.81-1.48-4.48-4.78,1.65-8.18-.05-16.14-1.62-24.11-.09-.66-.41-1.4-.2-2a20,20,0,0,1,1.65-3A24.2,24.2,0,0,1,69,115.83a7.46,7.46,0,0,1,.73,1.81c.79,8,1.59,15.94,2.37,23.68a68.66,68.66,0,0,1,9.68-.4C82.43,141,82.93,143.62,83.52,145.07Z"/><path class="cls-5" d="M35.93,118.66l.06-1.21a3,3,0,0,0,.78.08l3.75,0,.41.23c-2.15,8.19-3.2,16.47-2,24.92.42,3.37-1.18,4.89-4.45,4.77-3.84-.15-7.85,1.78-11.48-.93-.71-5.83,1.06-7.41,6.48-5.82L34.14,142C34.75,134,35.34,126.35,35.93,118.66Z"/><path class="cls-6" d="M61.37,16.73c-.82,2.08-2,4.1-2.34,6.26-.43,3.09-1.72,4-5.23,3,.38-4.12.74-8.14,1.1-12.16a40.68,40.68,0,0,1,3-4.24,89,89,0,0,1,8.87-9c1-.84,4.29-.7,5,.19,1.61,2.08-.39,3.28-2.23,4.41C65.23,7.81,61.92,11.33,61.37,16.73Z"/><path class="cls-5" d="M108.54,82.59l1.16-5.7c2.31,6.36,4.57,12.74,7,19.07,1.2,3.18,2.63,6.27,3.94,9.42.6,1.43,1.14,2.89,1.72,4.33l-1.13.76-3.47-2.1c-2.06,2.79-3.44,2.7-4.06-1.24a8.21,8.21,0,0,1-2.07,1.57,2.42,2.42,0,0,1-2.14-.26,2.15,2.15,0,0,1,.07-2.14c6.86-6.09,2.82-12.65.88-19.1C109.91,85.62,109.16,84.12,108.54,82.59Z"/><path class="cls-4" d="M67.34,69.62h-4.5c-3.33,0-5.7-1.14-6.46-4.84-.24-1.19-1.54-2.18-2.36-3.26-.71,1-1.85,1.91-2.06,3-.74,3.88-3.16,5.16-6.77,5.1-3,0-6-.11-9,.06s-4.57-1.23-4.91-3.84A40.27,40.27,0,0,1,31,56.41c.11-1.07,2-2.57,3.21-2.77a14,14,0,0,1,5.89.6c9.18,2.59,18.26,2.28,27.51.17,9.87-2.26,11.66-.23,9.62,9.74C76.08,69.72,76.08,69.72,67.34,69.62Z"/><path class="cls-4" d="M72.84,72.86c1.65,6.5-1.58,11.38-7.61,13.6-6.67,2.45-12.46.81-15.27-5.14C60.56,87.17,68.5,85.91,72.84,72.86Z"/><path class="cls-4" d="M40.52,117.5l-3.75,0c.35-2.07-.2-5.22,3.68-3.08l-.75.75,1.1.42Z"/><path class="cls-5" d="M40.8,115.62l-1.1-.42.75-.75Z"/><path class="cls-1" d="M43.56,30.22l1.1-.21-.48.83C44,30.64,43.77,30.43,43.56,30.22Z"/></g></g></svg>