<svg xmlns="http://www.w3.org/2000/svg" viewBox="0 0 150.45 153.16"><defs><style>.cls-1{fill:#fd0202;}.cls-2{fill:#0dab03;}.cls-3{opacity:0.15;}.cls-4{fill:#371e0f;}.cls-5{fill:#089208;}.cls-6{fill:#351205;}</style></defs><g id="Layer_2" data-name="Layer 2"><g id="Layer_1-2" data-name="Layer 1"><path class="cls-1" d="M95.76,25.1c10.42,4,19.82,9.39,26.84,18.35,6.71,8.56,10.28,18.16,9.72,29.14l-2.81,1.29,2.76,3C128,98,114.57,110.65,94.54,117a3.09,3.09,0,0,0-.31-.93c-.81-1.07-1.67-2.11-2.51-3.15-.48,1.21-1,2.42-1.41,3.66a5.18,5.18,0,0,0-.06,1.48,66.45,66.45,0,0,1-24.71.16,10.68,10.68,0,0,0,0-2.4A20.12,20.12,0,0,0,64.39,113a22.45,22.45,0,0,0-2.53,2.22,5,5,0,0,0-.63,1.8c-18.89-5.31-32-16.67-37.53-35.95l3.68-.66.1-1.28-4.9-2.37C21.06,54.37,31.56,39,50.69,28.6L67,30.89a24.35,24.35,0,0,0-4.46,17c9.5-2.64,14.82-8.6,16.83-17.95,6.22,5.58,12.1,10.68,21.72,9.9-1.84-3-3.06-5.53-4.8-7.62s-4-3.65-6.32-5.76ZM66.16,77.92c-1.48,4.73.55,8.85,4.72,11.52a12.78,12.78,0,0,0,14.42-1c3.55-3,4.9-6.45,3.23-10.23-2.34,5.37-4.8,10.43-11,10.53C71.23,88.81,68.8,83.75,66.16,77.92Zm28.38-5.11c1.38-3.83-.63-5.42-2.89-6.79-2.66-1.62-5.05-.82-7.2,1.1-2,1.76-2.08,2.36-1,5.13C89.59,65.63,89.17,67.11,94.54,72.81Zm-22.7,0c1.2-3.55-.47-5.33-2.71-6.6-2.54-1.46-5.18-1.33-7.31.86-1.35,1.39-3.29,2.9-1.34,5.38C66.66,66.16,65.73,66.59,71.84,72.77Z"/><path class="cls-2" d="M95.76,25.1,90,26.48c2.36,2.11,4.61,3.71,6.32,5.76s3,4.62,4.8,7.62c-9.62.78-15.5-4.32-21.72-9.9-2,9.35-7.33,15.31-16.83,17.95a24.35,24.35,0,0,1,4.46-17L50.69,28.6l-6-4.36c5.73-4.87,12.15-5.35,18.86-5.07-1.77-3.58-3.41-6.89-5.4-10.93,8-.83,14.43-.3,19.21,5.8-.33,2.91-.73,5.82-1,8.74-.14,1.87.07,4.08,2.52,3.83.93-.1,2.08-2.14,2.39-3.47.73-3.1,1.3-6.1,5-7,8-1.14,11.27,0,15.41,5.43Z"/><path class="cls-3" d="M108.33,144.85c2.21,3,2.09,4.11-1.43,5-5.07,1.34-10.29,2.81-15.48,2.93C79,153.1,66.57,154,54.36,150.93c-3.25-.82-7.33-1-6.88-6.08,5,4.62,10.36,1.09,15.82,1.3l.39-4.19H92.12l.4,4.2c3.55.32,6.93.94,10.28.82C104.67,146.9,106.49,145.6,108.33,144.85Z"/><path class="cls-4" d="M132.27,76.9l-2.76-3,2.81-1.29c8.46,4.44,11.68,12.08,13.35,21,1.25,6.62-1.39,14.07,4.78,19.89-3.66-.87-6.1,1.92-9.79.22-2.86-1.33-3.46-1.9-1.54-3.59,5.21-4.59,3.78-10.31,3.09-15.78-.78-6.17-2.8-12-7.82-16.19A12.94,12.94,0,0,0,132.27,76.9Z"/><path class="cls-4" d="M108.33,144.85c-1.84.75-3.66,2.05-5.53,2.12-3.35.12-6.73-.5-10.28-.82l-.4-4.2a66.79,66.79,0,0,0-1.87-23.89,5.18,5.18,0,0,1,.06-1.48c.41-1.24.93-2.45,1.41-3.66.84,1,1.7,2.08,2.51,3.15a3.09,3.09,0,0,1,.31.93c.82,7.85,1.63,15.7,2.5,24,1.26-.31,2.91-.65,4.53-1.12C106.54,138.46,108,139.48,108.33,144.85Z"/><path class="cls-4" d="M63.69,142l-.39,4.19c-5.46-.21-10.86,3.32-15.82-1.3.34-5.39,1.78-6.44,6.73-4.95,1.56.46,3.13.86,4.58,1.26.82-8.18,1.63-16.15,2.44-24.11a5,5,0,0,1,.63-1.8A22.45,22.45,0,0,1,64.39,113a20.12,20.12,0,0,1,1.13,2.79,10.68,10.68,0,0,1,0,2.4A65.74,65.74,0,0,0,63.69,142Z"/><path class="cls-4" d="M22.58,76.79l4.9,2.37-.1,1.28-3.68.66c-4.56-2.58-9.33-4.88-13.6-7.88-2-1.42-3.27-4.1-4.54-6.39-1.82-3.28-3.37-6.71-5-10.11A14.33,14.33,0,0,1,0,54c3.61,0,6.91-1.39,10.1.26.76.38,1.63,2,1.37,2.64-1.08,2.54-4.6,3.94-3.08,7.72a19.84,19.84,0,0,0,9.21,10A48.93,48.93,0,0,0,22.58,76.79Z"/><path class="cls-5" d="M86.34,16.18c-3.71.86-4.28,3.86-5,7-.31,1.33-1.46,3.37-2.39,3.47-2.45.25-2.66-2-2.52-3.83.23-2.92.63-5.83,1-8.74a39.82,39.82,0,0,1,2.83-3.86A126.63,126.63,0,0,1,89.82.41c.85-.73,3.87-.43,4.54.44,1.37,1.76,0,3.2-1.93,4.2-4.3,2.28-7,5.92-8.61,10.8Z"/><path class="cls-6" d="M66.16,77.92c2.64,5.83,5.07,10.89,11.4,10.79,6.17-.1,8.63-5.16,11-10.53,1.67,3.78.32,7.26-3.23,10.23a12.78,12.78,0,0,1-14.42,1C66.71,86.77,64.68,82.65,66.16,77.92Z"/><path class="cls-6" d="M94.54,72.81c-5.37-5.7-5-7.18-11-.56-1.13-2.77-1-3.37,1-5.13C86.6,65.2,89,64.4,91.65,66,93.91,67.39,95.92,69,94.54,72.81Z"/><path class="cls-6" d="M71.84,72.77c-6.11-6.18-5.18-6.61-11.36-.36-1.95-2.48,0-4,1.34-5.38,2.13-2.19,4.77-2.32,7.31-.86C71.37,67.44,73,69.22,71.84,72.77Z"/></g></g></svg>