<svg xmlns="http://www.w3.org/2000/svg" viewBox="0 0 157.59 172.82"><defs><style>.cls-1{fill:#fd0202;}.cls-2{fill:#0dab03;}.cls-3{opacity:0.15;}.cls-4{fill:#371e0f;}.cls-5{fill:#089208;}.cls-6{fill:#351205;}</style></defs><g id="Layer_2" data-name="Layer 2"><g id="Layer_1-2" data-name="Layer 1"><path class="cls-1" d="M97.84,25.14c12.07,4.19,22.38,10.78,29.57,21.63,3.52,5.31,6.14,11,6.67,17.44l-4,2.78c.1.43.2.86.29,1.29l4.4.32c.57,22.4-13.82,41.1-37,48.16-.47.14-1,.26-1.44.39a16.92,16.92,0,0,0-2.25-2.51,8.8,8.8,0,0,0-2.52-.93,15.16,15.16,0,0,0-.62,2.93c0,.55.55,1.12.86,1.69-8.06,1.25-16.11,1.72-24.13-.29v-4.19c-1.17.59-2.37,1.13-3.5,1.8A8.21,8.21,0,0,0,62.76,117c-17.54-5.5-30.41-16-36.11-34a48.19,48.19,0,0,1-1.06-5.35l2.13-2.17-2.94-2.09C24.66,54,33.7,40.11,50,30.44c1-.59,1.94-1.26,2.91-1.89l15.92,2.68c-2.34,5-4.8,10.22-3.59,16.61,9.18-2.65,14.63-8.4,16.5-17.64,11.37,9,15.21,10.68,21.08,9.11-1.64-5.65-5.57-9.4-11-12.64Zm-14.13,53-.15.66c-5.13.26-10.26.56-15.39.77-2.86.12-4.07,1.32-2.82,4.12,2.25,5,6,8.6,11.43,9.36,4.89.68,8.47-2.46,11.06-6.25,1.32-1.93,1.76-4.46,2.6-6.71ZM71.8,66.63a5.92,5.92,0,0,0-5.37-6A6.23,6.23,0,0,0,60,66.21c-.12,2.67,2.77,5.89,5.48,6.11A6.18,6.18,0,0,0,71.8,66.63Zm16.49,4.74a6.19,6.19,0,0,0,5.54-6,5.89,5.89,0,0,0-6.25-5.71,6.2,6.2,0,0,0-5.4,6.16C82.42,68.66,85.53,71.5,88.29,71.37Z"/><path class="cls-2" d="M97.84,25.14l-6,1.53c5.41,3.24,9.34,7,11,12.64-5.87,1.57-9.71-.07-21.08-9.11-1.87,9.24-7.32,15-16.5,17.64C64,41.45,66.45,36.21,68.79,31.23L52.87,28.55l-6-4.42a24.44,24.44,0,0,1,19.62-4.49L60.88,9.12c7.38-2.65,14-.78,18.9,4.87-.34,4-.68,8-1,11.9,3.35,1.12,4.62.22,5.12-2.58a53.7,53.7,0,0,1,2.15-6.85c9.77-1.7,13.12-.83,18.24,5.07Z"/><path class="cls-3" d="M45.81,165.9c3.51-1.21,5.86-2.51,8.33-2.78,11.12-1.19,22.15-3.84,33.49-1.61,5.65,1.11,11.44,1.42,17.16,2.14a4.94,4.94,0,0,1,2.34.74,7,7,0,0,1,2.43,2.75c.15.43-1.29,1.75-2.23,2.17a21,21,0,0,1-4.71,1.32c-14.28,2.77-28.64,2.72-43,.93-3.7-.46-7.28-1.9-10.88-3C48.06,168.33,47.57,167.52,45.81,165.9Z"/><path class="cls-4" d="M62.76,117a8.21,8.21,0,0,1,1.39-1.32c1.13-.67,2.33-1.21,3.5-1.8V118c-9.27,10.66-8.28,11-.71,22.71-2.66,3.33-5.32,6.91-8.25,10.24-1.8,2-4.18,2.3-6,.06s-1.35-4.45.92-6c2.45-1.7,5.1-3.12,7.64-4.64,0-.4.06-.77-.09-1C55,131.44,56.69,124.05,62.76,117Z"/><path class="cls-4" d="M91.77,118.33c-.31-.57-.88-1.14-.86-1.69a15.16,15.16,0,0,1,.62-2.93,8.8,8.8,0,0,1,2.52.93,16.92,16.92,0,0,1,2.25,2.51,8.83,8.83,0,0,0,.77,1.26c6.33,7.07,6.24,14.25-.09,21.75a69.65,69.65,0,0,1,6.62,6,7,7,0,0,1,1.61,4.72,4,4,0,0,1-3.06,2.54c-1.53-.16-3-1.45-4.37-2.47-.6-.45-.73-1.48-1.22-2.13-3.65-4.92-5-9.63-.34-15,2.79-3.23,2.26-7.1-.49-10.49C94.37,121.74,93.08,120,91.77,118.33Z"/><path class="cls-4" d="M134.78,68.6l-4.4-.32c-.09-.43-.19-.86-.29-1.29l4-2.78c6.44-.49,14.65-7.22,15.45-13.12.2-1.47-1-3.32-2-4.7-2.35-3.34-1.55-2.13,1.17-4.26s3.88-1.13,5.94-.42a14.68,14.68,0,0,0,2.91.41c-.37,1-.66,2.09-1.12,3.08-1.23,2.68-2.67,5.27-3.78,8a22.53,22.53,0,0,1-9.92,11.45C140.19,66.11,137.45,67.29,134.78,68.6Z"/><path class="cls-4" d="M24.78,73.33l2.94,2.09-2.13,2.17c-2.9-1.22-5.89-2.26-8.68-3.69-6-3.1-10.26-7.77-12.06-14.51-.45-1.7-1.61-3.21-2.46-4.8C1.67,53.22.94,51.87,0,50.11c4.77-.54,8.72-1.45,12.65,1.33A26,26,0,0,1,11,54.23c-3.15,4.12-3.26,5.31-.41,9.63C14,69,19,71.69,24.78,73.33Z"/><path class="cls-5" d="M86.05,16.46a53.7,53.7,0,0,0-2.15,6.85c-.5,2.8-1.77,3.7-5.12,2.58.32-3.89.66-7.89,1-11.9a38.69,38.69,0,0,1,3.09-4.27A108.42,108.42,0,0,1,92.24.4c.87-.72,3.81-.41,4.54.47,1.55,1.85-.13,3.21-1.89,4.16A17.66,17.66,0,0,0,86.05,16.46Z"/><path class="cls-6" d="M83.71,78.17l6.73,2c-.84,2.25-1.28,4.78-2.6,6.71-2.59,3.79-6.17,6.93-11.06,6.25-5.43-.76-9.18-4.36-11.43-9.36-1.25-2.8,0-4,2.82-4.12,5.13-.21,10.26-.51,15.39-.77Z"/><path class="cls-6" d="M71.8,66.63a6.18,6.18,0,0,1-6.29,5.69c-2.71-.22-5.6-3.44-5.48-6.11a6.23,6.23,0,0,1,6.4-5.59A5.92,5.92,0,0,1,71.8,66.63Z"/><path class="cls-6" d="M88.29,71.37c-2.76.13-5.87-2.71-6.11-5.58a6.2,6.2,0,0,1,5.4-6.16,5.89,5.89,0,0,1,6.25,5.71A6.19,6.19,0,0,1,88.29,71.37Z"/></g></g></svg>